<mxfile host="app.diagrams.net" modified="2023-10-24T15:05:44.267Z" agent="Mozilla/5.0 (Macintosh; Intel Mac OS X 10_15_7) AppleWebKit/605.1.15 (KHTML, like Gecko) Version/15.6.1 Safari/605.1.15" etag="0X9VSNUo-nY6JXwX2MRO" version="22.0.6" type="github">
  <diagram name="Page-1" id="0783ab3e-0a74-02c8-0abd-f7b4e66b4bec">
    <mxGraphModel dx="1122" dy="1861" grid="1" gridSize="10" guides="1" tooltips="1" connect="1" arrows="1" fold="1" page="1" pageScale="1" pageWidth="850" pageHeight="1100" background="none" math="0" shadow="0">
      <root>
        <mxCell id="0" />
        <mxCell id="1" parent="0" />
        <mxCell id="1c1d494c118603dd-1" value="Pool" style="swimlane;html=1;childLayout=stackLayout;startSize=20;rounded=0;shadow=0;comic=0;labelBackgroundColor=none;strokeWidth=1;fontFamily=Verdana;fontSize=12;align=center;fillColor=#21C0A5;strokeColor=#006658;fontColor=#5C5C5C;" parent="1" vertex="1">
          <mxGeometry x="40" y="20" width="940" height="3340" as="geometry" />
        </mxCell>
        <mxCell id="1c1d494c118603dd-2" value="" style="swimlane;html=1;startSize=20;swimlaneLine=0;labelBackgroundColor=none;fillColor=#21C0A5;strokeColor=#006658;fontColor=#5C5C5C;" parent="1c1d494c118603dd-1" vertex="1">
          <mxGeometry y="20" width="250" height="3320" as="geometry" />
        </mxCell>
        <mxCell id="1c1d494c118603dd-3" value="" style="swimlane;html=1;startSize=20;swimlaneLine=0;labelBackgroundColor=none;fillColor=#21C0A5;strokeColor=#006658;fontColor=#5C5C5C;" parent="1c1d494c118603dd-1" vertex="1">
          <mxGeometry x="250" y="20" width="690" height="3320" as="geometry">
            <mxRectangle x="250" y="20" width="40" height="970" as="alternateBounds" />
          </mxGeometry>
        </mxCell>
        <mxCell id="60571a20871a0731-3" value="" style="whiteSpace=wrap;html=1;rounded=0;shadow=0;comic=0;labelBackgroundColor=none;strokeWidth=1;fillColor=none;fontFamily=Verdana;fontSize=12;align=center;rotation=0;strokeColor=none;fontColor=#5C5C5C;" parent="1c1d494c118603dd-3" vertex="1">
          <mxGeometry x="50" y="140" width="147" height="10" as="geometry" />
        </mxCell>
        <mxCell id="61kF0M2mHR3nrfZJnthj-3" style="edgeStyle=orthogonalEdgeStyle;rounded=0;orthogonalLoop=1;jettySize=auto;html=1;exitX=1;exitY=0;exitDx=0;exitDy=0;strokeColor=none;fontColor=#5C5C5C;fillColor=#21C0A5;" edge="1" parent="1c1d494c118603dd-3">
          <mxGeometry relative="1" as="geometry">
            <mxPoint x="180" y="430" as="targetPoint" />
            <mxPoint x="171.5" y="440" as="sourcePoint" />
          </mxGeometry>
        </mxCell>
        <mxCell id="61kF0M2mHR3nrfZJnthj-4" style="edgeStyle=orthogonalEdgeStyle;rounded=0;orthogonalLoop=1;jettySize=auto;html=1;exitX=0;exitY=0;exitDx=0;exitDy=0;strokeColor=none;fontColor=#5C5C5C;fillColor=#21C0A5;" edge="1" parent="1c1d494c118603dd-3">
          <mxGeometry relative="1" as="geometry">
            <mxPoint x="50" y="440" as="targetPoint" />
            <mxPoint x="55.5" y="440" as="sourcePoint" />
          </mxGeometry>
        </mxCell>
        <mxCell id="1c1d494c118603dd-12" value="" style="whiteSpace=wrap;html=1;rounded=0;shadow=0;comic=0;labelBackgroundColor=none;strokeWidth=1;fillColor=none;fontFamily=Verdana;fontSize=12;align=center;rotation=0;strokeColor=none;fontColor=#5C5C5C;" parent="1c1d494c118603dd-3" vertex="1">
          <mxGeometry x="40" y="410" width="147" height="10" as="geometry" />
        </mxCell>
        <mxCell id="1c1d494c118603dd-28" style="edgeStyle=orthogonalEdgeStyle;rounded=0;html=1;entryX=0.5;entryY=0;labelBackgroundColor=none;startArrow=none;startFill=0;startSize=5;endArrow=classicThin;endFill=1;endSize=5;jettySize=auto;orthogonalLoop=1;strokeWidth=1;fontFamily=Verdana;fontSize=12;strokeColor=none;fontColor=default;" parent="1c1d494c118603dd-3" edge="1">
          <mxGeometry relative="1" as="geometry">
            <Array as="points">
              <mxPoint x="125" y="50" />
              <mxPoint x="-131" y="50" />
            </Array>
            <mxPoint x="125" y="130" as="sourcePoint" />
            <mxPoint x="-131.5" y="120" as="targetPoint" />
          </mxGeometry>
        </mxCell>
        <mxCell id="1c1d494c118603dd-4" value="" style="swimlane;html=1;startSize=20;swimlaneLine=0;labelBackgroundColor=none;" parent="1c1d494c118603dd-3" vertex="1">
          <mxGeometry x="250" y="10" width="440" height="3310" as="geometry" />
        </mxCell>
        <mxCell id="61kF0M2mHR3nrfZJnthj-93" style="edgeStyle=orthogonalEdgeStyle;rounded=0;orthogonalLoop=1;jettySize=auto;html=1;exitX=0.5;exitY=1;exitDx=0;exitDy=0;entryX=0.5;entryY=0;entryDx=0;entryDy=0;strokeColor=#006658;fontColor=#5C5C5C;fillColor=#21C0A5;" edge="1" parent="1c1d494c118603dd-4" source="60571a20871a0731-8" target="1c1d494c118603dd-5">
          <mxGeometry relative="1" as="geometry" />
        </mxCell>
        <mxCell id="60571a20871a0731-8" value="Erstellung des Fachfeinkonzepts\n(durch Software-Architekten)" style="rounded=1;whiteSpace=wrap;html=1;shadow=0;comic=0;labelBackgroundColor=none;strokeWidth=1;fontFamily=Verdana;fontSize=12;align=center;arcSize=50;fillColor=#21C0A5;strokeColor=#006658;fontColor=#5C5C5C;" parent="1c1d494c118603dd-4" vertex="1">
          <mxGeometry x="55" y="80" width="160" height="50" as="geometry" />
        </mxCell>
        <mxCell id="61kF0M2mHR3nrfZJnthj-94" style="edgeStyle=orthogonalEdgeStyle;rounded=0;orthogonalLoop=1;jettySize=auto;html=1;exitX=0.5;exitY=1;exitDx=0;exitDy=0;entryX=0.5;entryY=0;entryDx=0;entryDy=0;strokeColor=#006658;fontColor=#5C5C5C;fillColor=#21C0A5;" edge="1" parent="1c1d494c118603dd-4" source="1c1d494c118603dd-5" target="1c1d494c118603dd-8">
          <mxGeometry relative="1" as="geometry" />
        </mxCell>
        <mxCell id="1c1d494c118603dd-5" value="Übergabe des Fachfeinkonzepts\nan PMO" style="rounded=1;whiteSpace=wrap;html=1;shadow=0;comic=0;labelBackgroundColor=none;strokeWidth=1;fontFamily=Verdana;fontSize=12;align=center;arcSize=50;fillColor=#21C0A5;strokeColor=#006658;fontColor=#5C5C5C;" parent="1c1d494c118603dd-4" vertex="1">
          <mxGeometry x="67.5" y="198" width="135" height="58" as="geometry" />
        </mxCell>
        <mxCell id="61kF0M2mHR3nrfZJnthj-99" style="edgeStyle=orthogonalEdgeStyle;rounded=0;orthogonalLoop=1;jettySize=auto;html=1;exitX=0.5;exitY=1;exitDx=0;exitDy=0;strokeColor=#006658;fontColor=#5C5C5C;fillColor=#21C0A5;" edge="1" parent="1c1d494c118603dd-4" source="1c1d494c118603dd-8">
          <mxGeometry relative="1" as="geometry">
            <mxPoint x="134.47058823529414" y="430" as="targetPoint" />
          </mxGeometry>
        </mxCell>
        <mxCell id="1c1d494c118603dd-8" value="Benachrichtigung der Stakeholder\nüber das Review" style="rounded=1;whiteSpace=wrap;html=1;shadow=0;comic=0;labelBackgroundColor=none;strokeWidth=1;fontFamily=Verdana;fontSize=12;align=center;arcSize=50;fillColor=#21C0A5;strokeColor=#006658;fontColor=#5C5C5C;" parent="1c1d494c118603dd-4" vertex="1">
          <mxGeometry x="67.5" y="320" width="135" height="60" as="geometry" />
        </mxCell>
        <mxCell id="61kF0M2mHR3nrfZJnthj-12" value="" style="line;strokeWidth=7;fillColor=none;align=left;verticalAlign=middle;spacingTop=-1;spacingLeft=3;spacingRight=3;rotatable=0;labelPosition=right;points=[];portConstraint=eastwest;strokeColor=inherit;fontColor=#5C5C5C;" vertex="1" parent="1c1d494c118603dd-4">
          <mxGeometry x="40" y="440" width="200" height="10" as="geometry" />
        </mxCell>
        <mxCell id="61kF0M2mHR3nrfZJnthj-61" style="edgeStyle=orthogonalEdgeStyle;rounded=0;orthogonalLoop=1;jettySize=auto;html=1;exitX=0.5;exitY=1;exitDx=0;exitDy=0;entryX=0.5;entryY=0;entryDx=0;entryDy=0;strokeColor=#006658;fontColor=#5C5C5C;fillColor=#21C0A5;" edge="1" parent="1c1d494c118603dd-4" source="61kF0M2mHR3nrfZJnthj-17" target="61kF0M2mHR3nrfZJnthj-60">
          <mxGeometry relative="1" as="geometry" />
        </mxCell>
        <mxCell id="61kF0M2mHR3nrfZJnthj-17" value="Review durch Stakeholder" style="rounded=1;whiteSpace=wrap;html=1;strokeColor=#006658;fontColor=#5C5C5C;fillColor=#21C0A5;" vertex="1" parent="1c1d494c118603dd-4">
          <mxGeometry x="10" y="520" width="100" height="40" as="geometry" />
        </mxCell>
        <mxCell id="61kF0M2mHR3nrfZJnthj-21" style="edgeStyle=orthogonalEdgeStyle;rounded=0;orthogonalLoop=1;jettySize=auto;html=1;exitX=0.5;exitY=1;exitDx=0;exitDy=0;strokeColor=#006658;fontColor=#5C5C5C;fillColor=#21C0A5;" edge="1" parent="1c1d494c118603dd-4" source="61kF0M2mHR3nrfZJnthj-18">
          <mxGeometry relative="1" as="geometry">
            <mxPoint x="225" y="640" as="targetPoint" />
          </mxGeometry>
        </mxCell>
        <mxCell id="61kF0M2mHR3nrfZJnthj-18" value="kritische Fehler identifizieren" style="rounded=1;whiteSpace=wrap;html=1;strokeColor=#006658;fontColor=#5C5C5C;fillColor=#21C0A5;" vertex="1" parent="1c1d494c118603dd-4">
          <mxGeometry x="180" y="520" width="90" height="50" as="geometry" />
        </mxCell>
        <mxCell id="61kF0M2mHR3nrfZJnthj-40" style="edgeStyle=orthogonalEdgeStyle;rounded=0;orthogonalLoop=1;jettySize=auto;html=1;exitX=1;exitY=0.5;exitDx=0;exitDy=0;entryX=0.5;entryY=0;entryDx=0;entryDy=0;strokeColor=#006658;fontColor=#5C5C5C;fillColor=#21C0A5;" edge="1" parent="1c1d494c118603dd-4" source="61kF0M2mHR3nrfZJnthj-22" target="61kF0M2mHR3nrfZJnthj-26">
          <mxGeometry relative="1" as="geometry" />
        </mxCell>
        <mxCell id="61kF0M2mHR3nrfZJnthj-22" value="" style="rhombus;whiteSpace=wrap;html=1;strokeColor=#006658;fontColor=#5C5C5C;fillColor=#21C0A5;" vertex="1" parent="1c1d494c118603dd-4">
          <mxGeometry x="185" y="640" width="80" height="40" as="geometry" />
        </mxCell>
        <mxCell id="61kF0M2mHR3nrfZJnthj-28" style="edgeStyle=orthogonalEdgeStyle;rounded=0;orthogonalLoop=1;jettySize=auto;html=1;exitX=0.5;exitY=1;exitDx=0;exitDy=0;entryX=0.5;entryY=0;entryDx=0;entryDy=0;strokeColor=#006658;fontColor=#5C5C5C;fillColor=#21C0A5;" edge="1" parent="1c1d494c118603dd-4" source="61kF0M2mHR3nrfZJnthj-25" target="61kF0M2mHR3nrfZJnthj-27">
          <mxGeometry relative="1" as="geometry" />
        </mxCell>
        <mxCell id="61kF0M2mHR3nrfZJnthj-25" value="kritische Fehler identifiziert" style="rounded=1;whiteSpace=wrap;html=1;strokeColor=#006658;fontColor=#5C5C5C;fillColor=#21C0A5;" vertex="1" parent="1c1d494c118603dd-4">
          <mxGeometry x="120" y="760" width="90" height="50" as="geometry" />
        </mxCell>
        <mxCell id="61kF0M2mHR3nrfZJnthj-43" style="edgeStyle=orthogonalEdgeStyle;rounded=0;orthogonalLoop=1;jettySize=auto;html=1;exitX=0.5;exitY=1;exitDx=0;exitDy=0;entryX=0.5;entryY=0;entryDx=0;entryDy=0;strokeColor=#006658;fontColor=#5C5C5C;fillColor=#21C0A5;" edge="1" parent="1c1d494c118603dd-4" source="61kF0M2mHR3nrfZJnthj-26" target="61kF0M2mHR3nrfZJnthj-41">
          <mxGeometry relative="1" as="geometry" />
        </mxCell>
        <mxCell id="61kF0M2mHR3nrfZJnthj-26" value="wenig kritische Fehler identifiziert" style="rounded=1;whiteSpace=wrap;html=1;strokeColor=#006658;fontColor=#5C5C5C;fillColor=#21C0A5;" vertex="1" parent="1c1d494c118603dd-4">
          <mxGeometry x="310" y="750" width="100" height="50" as="geometry" />
        </mxCell>
        <mxCell id="61kF0M2mHR3nrfZJnthj-33" style="edgeStyle=orthogonalEdgeStyle;rounded=0;orthogonalLoop=1;jettySize=auto;html=1;exitX=0.5;exitY=1;exitDx=0;exitDy=0;strokeColor=#006658;fontColor=#5C5C5C;fillColor=#21C0A5;" edge="1" parent="1c1d494c118603dd-4" source="61kF0M2mHR3nrfZJnthj-27" target="61kF0M2mHR3nrfZJnthj-30">
          <mxGeometry relative="1" as="geometry" />
        </mxCell>
        <mxCell id="61kF0M2mHR3nrfZJnthj-27" value="Überarbeitung des Fachfeinkonzepts\n" style="rounded=1;whiteSpace=wrap;html=1;strokeColor=#006658;fontColor=#5C5C5C;fillColor=#21C0A5;" vertex="1" parent="1c1d494c118603dd-4">
          <mxGeometry x="100" y="880" width="130" height="70" as="geometry" />
        </mxCell>
        <mxCell id="61kF0M2mHR3nrfZJnthj-35" style="edgeStyle=orthogonalEdgeStyle;rounded=0;orthogonalLoop=1;jettySize=auto;html=1;exitX=0.5;exitY=1;exitDx=0;exitDy=0;entryX=0.5;entryY=0;entryDx=0;entryDy=0;strokeColor=#006658;fontColor=#5C5C5C;fillColor=#21C0A5;" edge="1" parent="1c1d494c118603dd-4" source="61kF0M2mHR3nrfZJnthj-30" target="61kF0M2mHR3nrfZJnthj-34">
          <mxGeometry relative="1" as="geometry" />
        </mxCell>
        <mxCell id="61kF0M2mHR3nrfZJnthj-30" value="Erneute Übergabe des Fachfeinkonzepts\nan PMO" style="rounded=1;whiteSpace=wrap;html=1;strokeColor=#006658;fontColor=#5C5C5C;fillColor=#21C0A5;" vertex="1" parent="1c1d494c118603dd-4">
          <mxGeometry x="105" y="1000" width="120" height="60" as="geometry" />
        </mxCell>
        <mxCell id="61kF0M2mHR3nrfZJnthj-31" style="edgeStyle=orthogonalEdgeStyle;rounded=0;orthogonalLoop=1;jettySize=auto;html=1;exitX=0.5;exitY=1;exitDx=0;exitDy=0;strokeColor=#006658;fontColor=#5C5C5C;fillColor=#21C0A5;" edge="1" parent="1c1d494c118603dd-4" source="61kF0M2mHR3nrfZJnthj-27" target="61kF0M2mHR3nrfZJnthj-27">
          <mxGeometry relative="1" as="geometry" />
        </mxCell>
        <mxCell id="61kF0M2mHR3nrfZJnthj-37" style="edgeStyle=orthogonalEdgeStyle;rounded=0;orthogonalLoop=1;jettySize=auto;html=1;exitX=0.5;exitY=1;exitDx=0;exitDy=0;strokeColor=#006658;fontColor=#5C5C5C;fillColor=#21C0A5;" edge="1" parent="1c1d494c118603dd-4" source="61kF0M2mHR3nrfZJnthj-34" target="61kF0M2mHR3nrfZJnthj-36">
          <mxGeometry relative="1" as="geometry" />
        </mxCell>
        <mxCell id="61kF0M2mHR3nrfZJnthj-34" value="Erneute Übergabe des Fachfeinkonzepts\nan PMO" style="rounded=1;whiteSpace=wrap;html=1;strokeColor=#006658;fontColor=#5C5C5C;fillColor=#21C0A5;" vertex="1" parent="1c1d494c118603dd-4">
          <mxGeometry x="105" y="1120" width="120" height="60" as="geometry" />
        </mxCell>
        <mxCell id="61kF0M2mHR3nrfZJnthj-39" style="edgeStyle=orthogonalEdgeStyle;rounded=0;orthogonalLoop=1;jettySize=auto;html=1;exitX=0.5;exitY=1;exitDx=0;exitDy=0;entryX=0.5;entryY=0;entryDx=0;entryDy=0;strokeColor=#006658;fontColor=#5C5C5C;fillColor=#21C0A5;" edge="1" parent="1c1d494c118603dd-4" source="61kF0M2mHR3nrfZJnthj-36" target="61kF0M2mHR3nrfZJnthj-38">
          <mxGeometry relative="1" as="geometry" />
        </mxCell>
        <mxCell id="61kF0M2mHR3nrfZJnthj-36" value="PMO bereitet Dokumente auf und\nöffnet Projekt-Sharepoint" style="rounded=1;whiteSpace=wrap;html=1;strokeColor=#006658;fontColor=#5C5C5C;fillColor=#21C0A5;" vertex="1" parent="1c1d494c118603dd-4">
          <mxGeometry x="105" y="1240" width="120" height="60" as="geometry" />
        </mxCell>
        <mxCell id="61kF0M2mHR3nrfZJnthj-49" style="edgeStyle=orthogonalEdgeStyle;rounded=0;orthogonalLoop=1;jettySize=auto;html=1;exitX=0.5;exitY=1;exitDx=0;exitDy=0;entryX=0;entryY=0.5;entryDx=0;entryDy=0;strokeColor=#006658;fontColor=#5C5C5C;fillColor=#21C0A5;" edge="1" parent="1c1d494c118603dd-4" source="61kF0M2mHR3nrfZJnthj-38" target="61kF0M2mHR3nrfZJnthj-48">
          <mxGeometry relative="1" as="geometry" />
        </mxCell>
        <mxCell id="61kF0M2mHR3nrfZJnthj-38" value="Benachrichtigung der Stakeholder nüber erneutes Review" style="rounded=1;whiteSpace=wrap;html=1;strokeColor=#006658;fontColor=#5C5C5C;fillColor=#21C0A5;" vertex="1" parent="1c1d494c118603dd-4">
          <mxGeometry x="105" y="1380" width="120" height="60" as="geometry" />
        </mxCell>
        <mxCell id="61kF0M2mHR3nrfZJnthj-44" style="edgeStyle=orthogonalEdgeStyle;rounded=0;orthogonalLoop=1;jettySize=auto;html=1;exitX=0.5;exitY=1;exitDx=0;exitDy=0;entryX=0.5;entryY=0;entryDx=0;entryDy=0;strokeColor=#006658;fontColor=#5C5C5C;fillColor=#21C0A5;" edge="1" parent="1c1d494c118603dd-4" source="61kF0M2mHR3nrfZJnthj-41" target="61kF0M2mHR3nrfZJnthj-42">
          <mxGeometry relative="1" as="geometry" />
        </mxCell>
        <mxCell id="61kF0M2mHR3nrfZJnthj-41" value="Überarbeitung des Fachfeinkonzepts\n(durch Software-Architekten)" style="rounded=1;whiteSpace=wrap;html=1;strokeColor=#006658;fontColor=#5C5C5C;fillColor=#21C0A5;" vertex="1" parent="1c1d494c118603dd-4">
          <mxGeometry x="300" y="885" width="120" height="60" as="geometry" />
        </mxCell>
        <mxCell id="61kF0M2mHR3nrfZJnthj-46" style="edgeStyle=orthogonalEdgeStyle;rounded=0;orthogonalLoop=1;jettySize=auto;html=1;exitX=0.5;exitY=1;exitDx=0;exitDy=0;entryX=0.5;entryY=0;entryDx=0;entryDy=0;strokeColor=#006658;fontColor=#5C5C5C;fillColor=#21C0A5;" edge="1" parent="1c1d494c118603dd-4" source="61kF0M2mHR3nrfZJnthj-42" target="61kF0M2mHR3nrfZJnthj-45">
          <mxGeometry relative="1" as="geometry" />
        </mxCell>
        <mxCell id="61kF0M2mHR3nrfZJnthj-42" value="Erneute Übergabe des Fachfeinkonzepts\nan PMO" style="rounded=1;whiteSpace=wrap;html=1;strokeColor=#006658;fontColor=#5C5C5C;fillColor=#21C0A5;" vertex="1" parent="1c1d494c118603dd-4">
          <mxGeometry x="300" y="1000" width="120" height="60" as="geometry" />
        </mxCell>
        <mxCell id="61kF0M2mHR3nrfZJnthj-50" style="edgeStyle=orthogonalEdgeStyle;rounded=0;orthogonalLoop=1;jettySize=auto;html=1;exitX=0.5;exitY=1;exitDx=0;exitDy=0;entryX=1;entryY=0.5;entryDx=0;entryDy=0;strokeColor=#006658;fontColor=#5C5C5C;fillColor=#21C0A5;" edge="1" parent="1c1d494c118603dd-4" source="61kF0M2mHR3nrfZJnthj-45" target="61kF0M2mHR3nrfZJnthj-48">
          <mxGeometry relative="1" as="geometry" />
        </mxCell>
        <mxCell id="61kF0M2mHR3nrfZJnthj-45" value="PMO bereitet Dokumente auf und\nöffnet Projekt-Sharepoint" style="rounded=1;whiteSpace=wrap;html=1;strokeColor=#006658;fontColor=#5C5C5C;fillColor=#21C0A5;" vertex="1" parent="1c1d494c118603dd-4">
          <mxGeometry x="300" y="1120" width="120" height="60" as="geometry" />
        </mxCell>
        <mxCell id="61kF0M2mHR3nrfZJnthj-58" style="edgeStyle=orthogonalEdgeStyle;rounded=0;orthogonalLoop=1;jettySize=auto;html=1;exitX=0.5;exitY=1;exitDx=0;exitDy=0;strokeColor=#006658;fontColor=#5C5C5C;fillColor=#21C0A5;" edge="1" parent="1c1d494c118603dd-4" source="61kF0M2mHR3nrfZJnthj-48" target="61kF0M2mHR3nrfZJnthj-55">
          <mxGeometry relative="1" as="geometry" />
        </mxCell>
        <mxCell id="61kF0M2mHR3nrfZJnthj-48" value="" style="rhombus;whiteSpace=wrap;html=1;strokeColor=#006658;fontColor=#5C5C5C;fillColor=#21C0A5;" vertex="1" parent="1c1d494c118603dd-4">
          <mxGeometry x="220" y="1520" width="80" height="40" as="geometry" />
        </mxCell>
        <mxCell id="61kF0M2mHR3nrfZJnthj-55" value="" style="line;strokeWidth=8;fillColor=none;align=left;verticalAlign=middle;spacingTop=-1;spacingLeft=3;spacingRight=3;rotatable=0;labelPosition=right;points=[];portConstraint=eastwest;strokeColor=inherit;fontColor=#5C5C5C;" vertex="1" parent="1c1d494c118603dd-4">
          <mxGeometry x="57.5" y="1660" width="160" height="10" as="geometry" />
        </mxCell>
        <mxCell id="61kF0M2mHR3nrfZJnthj-60" value="Review durchführen" style="rounded=1;whiteSpace=wrap;html=1;strokeColor=#006658;fontColor=#5C5C5C;fillColor=#21C0A5;" vertex="1" parent="1c1d494c118603dd-4">
          <mxGeometry x="10" y="670" width="100" height="40" as="geometry" />
        </mxCell>
        <mxCell id="61kF0M2mHR3nrfZJnthj-62" style="edgeStyle=orthogonalEdgeStyle;rounded=0;orthogonalLoop=1;jettySize=auto;html=1;exitX=0.5;exitY=1;exitDx=0;exitDy=0;entryX=0.002;entryY=0;entryDx=0;entryDy=0;entryPerimeter=0;strokeColor=#006658;fontColor=#5C5C5C;fillColor=#21C0A5;" edge="1" parent="1c1d494c118603dd-4" source="61kF0M2mHR3nrfZJnthj-60" target="61kF0M2mHR3nrfZJnthj-55">
          <mxGeometry relative="1" as="geometry" />
        </mxCell>
        <mxCell id="61kF0M2mHR3nrfZJnthj-67" style="edgeStyle=orthogonalEdgeStyle;rounded=0;orthogonalLoop=1;jettySize=auto;html=1;exitX=0.5;exitY=1;exitDx=0;exitDy=0;entryX=0.5;entryY=0;entryDx=0;entryDy=0;strokeColor=#006658;fontColor=#5C5C5C;fillColor=#21C0A5;" edge="1" parent="1c1d494c118603dd-4" source="61kF0M2mHR3nrfZJnthj-64" target="61kF0M2mHR3nrfZJnthj-66">
          <mxGeometry relative="1" as="geometry" />
        </mxCell>
        <mxCell id="61kF0M2mHR3nrfZJnthj-64" value="Gesamtbewertung der Reviews\n(durch PMO)" style="rounded=1;whiteSpace=wrap;html=1;strokeColor=#006658;fontColor=#5C5C5C;fillColor=#21C0A5;" vertex="1" parent="1c1d494c118603dd-4">
          <mxGeometry x="80" y="1750" width="120" height="60" as="geometry" />
        </mxCell>
        <mxCell id="61kF0M2mHR3nrfZJnthj-65" value="" style="endArrow=classic;html=1;rounded=0;strokeColor=#006658;fontColor=#5C5C5C;fillColor=#21C0A5;exitX=0.518;exitY=0.782;exitDx=0;exitDy=0;exitPerimeter=0;entryX=0.5;entryY=0;entryDx=0;entryDy=0;" edge="1" parent="1c1d494c118603dd-4" source="61kF0M2mHR3nrfZJnthj-55" target="61kF0M2mHR3nrfZJnthj-64">
          <mxGeometry width="50" height="50" relative="1" as="geometry">
            <mxPoint x="40" y="1680" as="sourcePoint" />
            <mxPoint x="90" y="1630" as="targetPoint" />
          </mxGeometry>
        </mxCell>
        <mxCell id="61kF0M2mHR3nrfZJnthj-69" style="edgeStyle=orthogonalEdgeStyle;rounded=0;orthogonalLoop=1;jettySize=auto;html=1;exitX=1;exitY=0.5;exitDx=0;exitDy=0;strokeColor=#006658;fontColor=#5C5C5C;fillColor=#21C0A5;" edge="1" parent="1c1d494c118603dd-4" source="61kF0M2mHR3nrfZJnthj-66" target="61kF0M2mHR3nrfZJnthj-68">
          <mxGeometry relative="1" as="geometry" />
        </mxCell>
        <mxCell id="61kF0M2mHR3nrfZJnthj-82" style="edgeStyle=orthogonalEdgeStyle;rounded=0;orthogonalLoop=1;jettySize=auto;html=1;exitX=0;exitY=0.5;exitDx=0;exitDy=0;entryX=0;entryY=0.5;entryDx=0;entryDy=0;strokeColor=#006658;fontColor=#5C5C5C;fillColor=#21C0A5;" edge="1" parent="1c1d494c118603dd-4" source="61kF0M2mHR3nrfZJnthj-66" target="61kF0M2mHR3nrfZJnthj-80">
          <mxGeometry relative="1" as="geometry" />
        </mxCell>
        <mxCell id="61kF0M2mHR3nrfZJnthj-66" value="" style="rhombus;whiteSpace=wrap;html=1;strokeColor=#006658;fontColor=#5C5C5C;fillColor=#21C0A5;" vertex="1" parent="1c1d494c118603dd-4">
          <mxGeometry x="100" y="1870" width="80" height="40" as="geometry" />
        </mxCell>
        <mxCell id="61kF0M2mHR3nrfZJnthj-71" style="edgeStyle=orthogonalEdgeStyle;rounded=0;orthogonalLoop=1;jettySize=auto;html=1;exitX=0.5;exitY=1;exitDx=0;exitDy=0;entryX=0.5;entryY=0;entryDx=0;entryDy=0;strokeColor=#006658;fontColor=#5C5C5C;fillColor=#21C0A5;" edge="1" parent="1c1d494c118603dd-4" source="61kF0M2mHR3nrfZJnthj-68" target="61kF0M2mHR3nrfZJnthj-70">
          <mxGeometry relative="1" as="geometry" />
        </mxCell>
        <mxCell id="61kF0M2mHR3nrfZJnthj-68" value="kritische Fehler behoben" style="rounded=1;whiteSpace=wrap;html=1;strokeColor=#006658;fontColor=#5C5C5C;fillColor=#21C0A5;" vertex="1" parent="1c1d494c118603dd-4">
          <mxGeometry x="165" y="1950" width="120" height="60" as="geometry" />
        </mxCell>
        <mxCell id="61kF0M2mHR3nrfZJnthj-75" style="edgeStyle=orthogonalEdgeStyle;rounded=0;orthogonalLoop=1;jettySize=auto;html=1;exitX=0.5;exitY=1;exitDx=0;exitDy=0;entryX=0.5;entryY=0;entryDx=0;entryDy=0;strokeColor=#006658;fontColor=#5C5C5C;fillColor=#21C0A5;" edge="1" parent="1c1d494c118603dd-4" source="61kF0M2mHR3nrfZJnthj-70" target="61kF0M2mHR3nrfZJnthj-72">
          <mxGeometry relative="1" as="geometry" />
        </mxCell>
        <mxCell id="61kF0M2mHR3nrfZJnthj-70" value="Erneute Übergabe des Fachfeinkonzepts\nan PMO" style="rounded=1;whiteSpace=wrap;html=1;strokeColor=#006658;fontColor=#5C5C5C;fillColor=#21C0A5;" vertex="1" parent="1c1d494c118603dd-4">
          <mxGeometry x="165" y="2070" width="120" height="60" as="geometry" />
        </mxCell>
        <mxCell id="61kF0M2mHR3nrfZJnthj-76" style="edgeStyle=orthogonalEdgeStyle;rounded=0;orthogonalLoop=1;jettySize=auto;html=1;exitX=0.5;exitY=1;exitDx=0;exitDy=0;strokeColor=#006658;fontColor=#5C5C5C;fillColor=#21C0A5;" edge="1" parent="1c1d494c118603dd-4" source="61kF0M2mHR3nrfZJnthj-72" target="61kF0M2mHR3nrfZJnthj-73">
          <mxGeometry relative="1" as="geometry" />
        </mxCell>
        <mxCell id="61kF0M2mHR3nrfZJnthj-72" value="PMO bereitet Dokumente auf und\nöffnet Projekt-Sharepoint" style="rounded=1;whiteSpace=wrap;html=1;strokeColor=#006658;fontColor=#5C5C5C;fillColor=#21C0A5;" vertex="1" parent="1c1d494c118603dd-4">
          <mxGeometry x="165" y="2190" width="120" height="60" as="geometry" />
        </mxCell>
        <mxCell id="61kF0M2mHR3nrfZJnthj-77" style="edgeStyle=orthogonalEdgeStyle;rounded=0;orthogonalLoop=1;jettySize=auto;html=1;exitX=0.5;exitY=1;exitDx=0;exitDy=0;entryX=0.5;entryY=0;entryDx=0;entryDy=0;strokeColor=#006658;fontColor=#5C5C5C;fillColor=#21C0A5;" edge="1" parent="1c1d494c118603dd-4" source="61kF0M2mHR3nrfZJnthj-73" target="61kF0M2mHR3nrfZJnthj-74">
          <mxGeometry relative="1" as="geometry" />
        </mxCell>
        <mxCell id="61kF0M2mHR3nrfZJnthj-73" value="Benachrichtigung der Stakeholder\nüber erneutes Review" style="rounded=1;whiteSpace=wrap;html=1;strokeColor=#006658;fontColor=#5C5C5C;fillColor=#21C0A5;" vertex="1" parent="1c1d494c118603dd-4">
          <mxGeometry x="165" y="2320" width="120" height="60" as="geometry" />
        </mxCell>
        <mxCell id="61kF0M2mHR3nrfZJnthj-79" style="edgeStyle=orthogonalEdgeStyle;rounded=0;orthogonalLoop=1;jettySize=auto;html=1;exitX=0.5;exitY=1;exitDx=0;exitDy=0;entryX=0.5;entryY=0;entryDx=0;entryDy=0;strokeColor=#006658;fontColor=#5C5C5C;fillColor=#21C0A5;" edge="1" parent="1c1d494c118603dd-4" source="61kF0M2mHR3nrfZJnthj-74" target="61kF0M2mHR3nrfZJnthj-78">
          <mxGeometry relative="1" as="geometry" />
        </mxCell>
        <mxCell id="61kF0M2mHR3nrfZJnthj-74" value="Review durchführen" style="rounded=1;whiteSpace=wrap;html=1;strokeColor=#006658;fontColor=#5C5C5C;fillColor=#21C0A5;" vertex="1" parent="1c1d494c118603dd-4">
          <mxGeometry x="165" y="2450" width="120" height="60" as="geometry" />
        </mxCell>
        <mxCell id="61kF0M2mHR3nrfZJnthj-81" style="edgeStyle=orthogonalEdgeStyle;rounded=0;orthogonalLoop=1;jettySize=auto;html=1;exitX=0.5;exitY=1;exitDx=0;exitDy=0;entryX=1;entryY=0.5;entryDx=0;entryDy=0;strokeColor=#006658;fontColor=#5C5C5C;fillColor=#21C0A5;" edge="1" parent="1c1d494c118603dd-4" source="61kF0M2mHR3nrfZJnthj-78" target="61kF0M2mHR3nrfZJnthj-80">
          <mxGeometry relative="1" as="geometry" />
        </mxCell>
        <mxCell id="61kF0M2mHR3nrfZJnthj-78" value="Gesamtbewertung der Reviews\n(durch PMO)" style="rounded=1;whiteSpace=wrap;html=1;strokeColor=#006658;fontColor=#5C5C5C;fillColor=#21C0A5;" vertex="1" parent="1c1d494c118603dd-4">
          <mxGeometry x="165" y="2580" width="120" height="60" as="geometry" />
        </mxCell>
        <mxCell id="61kF0M2mHR3nrfZJnthj-84" style="edgeStyle=orthogonalEdgeStyle;rounded=0;orthogonalLoop=1;jettySize=auto;html=1;exitX=0.5;exitY=1;exitDx=0;exitDy=0;strokeColor=#006658;fontColor=#5C5C5C;fillColor=#21C0A5;" edge="1" parent="1c1d494c118603dd-4" source="61kF0M2mHR3nrfZJnthj-80" target="61kF0M2mHR3nrfZJnthj-83">
          <mxGeometry relative="1" as="geometry" />
        </mxCell>
        <mxCell id="61kF0M2mHR3nrfZJnthj-80" value="" style="rhombus;whiteSpace=wrap;html=1;strokeColor=#006658;fontColor=#5C5C5C;fillColor=#21C0A5;" vertex="1" parent="1c1d494c118603dd-4">
          <mxGeometry x="100" y="2710" width="80" height="40" as="geometry" />
        </mxCell>
        <mxCell id="61kF0M2mHR3nrfZJnthj-86" style="edgeStyle=orthogonalEdgeStyle;rounded=0;orthogonalLoop=1;jettySize=auto;html=1;exitX=0.5;exitY=1;exitDx=0;exitDy=0;strokeColor=#006658;fontColor=#5C5C5C;fillColor=#21C0A5;" edge="1" parent="1c1d494c118603dd-4" source="61kF0M2mHR3nrfZJnthj-83" target="61kF0M2mHR3nrfZJnthj-85">
          <mxGeometry relative="1" as="geometry" />
        </mxCell>
        <mxCell id="61kF0M2mHR3nrfZJnthj-83" value="Erstellung des &quot;Letter of Acceptance&quot;\nund Abnahmeprotokoll&amp;nbsp;&lt;br&gt;" style="rounded=1;whiteSpace=wrap;html=1;strokeColor=#006658;fontColor=#5C5C5C;fillColor=#21C0A5;" vertex="1" parent="1c1d494c118603dd-4">
          <mxGeometry x="80" y="2830" width="120" height="60" as="geometry" />
        </mxCell>
        <mxCell id="61kF0M2mHR3nrfZJnthj-88" style="edgeStyle=orthogonalEdgeStyle;rounded=0;orthogonalLoop=1;jettySize=auto;html=1;exitX=0.5;exitY=1;exitDx=0;exitDy=0;entryX=0.5;entryY=0;entryDx=0;entryDy=0;strokeColor=#006658;fontColor=#5C5C5C;fillColor=#21C0A5;" edge="1" parent="1c1d494c118603dd-4" source="61kF0M2mHR3nrfZJnthj-85" target="61kF0M2mHR3nrfZJnthj-87">
          <mxGeometry relative="1" as="geometry" />
        </mxCell>
        <mxCell id="61kF0M2mHR3nrfZJnthj-85" value="Unterschrift von allen relevanten\ninternen Stakeholdern einholen" style="rounded=1;whiteSpace=wrap;html=1;strokeColor=#006658;fontColor=#5C5C5C;fillColor=#21C0A5;" vertex="1" parent="1c1d494c118603dd-4">
          <mxGeometry x="80" y="2950" width="120" height="60" as="geometry" />
        </mxCell>
        <mxCell id="61kF0M2mHR3nrfZJnthj-92" style="edgeStyle=orthogonalEdgeStyle;rounded=0;orthogonalLoop=1;jettySize=auto;html=1;exitX=0.5;exitY=1;exitDx=0;exitDy=0;entryX=0.5;entryY=0;entryDx=0;entryDy=0;strokeColor=#006658;fontColor=#5C5C5C;fillColor=#21C0A5;" edge="1" parent="1c1d494c118603dd-4" source="61kF0M2mHR3nrfZJnthj-87" target="61kF0M2mHR3nrfZJnthj-89">
          <mxGeometry relative="1" as="geometry" />
        </mxCell>
        <mxCell id="61kF0M2mHR3nrfZJnthj-87" value="Einleitung der nächsten Phase\n(PMO)" style="rounded=1;whiteSpace=wrap;html=1;strokeColor=#006658;fontColor=#5C5C5C;fillColor=#21C0A5;" vertex="1" parent="1c1d494c118603dd-4">
          <mxGeometry x="80" y="3080" width="120" height="60" as="geometry" />
        </mxCell>
        <mxCell id="61kF0M2mHR3nrfZJnthj-89" value="" style="ellipse;html=1;shape=endState;fillColor=#000000;strokeColor=#ff0000;fontColor=#5C5C5C;" vertex="1" parent="1c1d494c118603dd-4">
          <mxGeometry x="125" y="3240" width="30" height="30" as="geometry" />
        </mxCell>
        <mxCell id="61kF0M2mHR3nrfZJnthj-91" style="edgeStyle=orthogonalEdgeStyle;rounded=0;orthogonalLoop=1;jettySize=auto;html=1;exitX=1;exitY=1;exitDx=0;exitDy=0;entryX=0;entryY=0.5;entryDx=0;entryDy=0;strokeColor=#006658;fontColor=#5C5C5C;fillColor=#21C0A5;" edge="1" parent="1c1d494c118603dd-4" source="61kF0M2mHR3nrfZJnthj-89" target="61kF0M2mHR3nrfZJnthj-89">
          <mxGeometry relative="1" as="geometry" />
        </mxCell>
        <mxCell id="61kF0M2mHR3nrfZJnthj-98" style="edgeStyle=orthogonalEdgeStyle;rounded=0;orthogonalLoop=1;jettySize=auto;html=1;exitX=0.5;exitY=1;exitDx=0;exitDy=0;entryX=0.5;entryY=0;entryDx=0;entryDy=0;strokeColor=#006658;fontColor=#5C5C5C;fillColor=#21C0A5;" edge="1" parent="1c1d494c118603dd-4" source="61kF0M2mHR3nrfZJnthj-96" target="60571a20871a0731-8">
          <mxGeometry relative="1" as="geometry" />
        </mxCell>
        <mxCell id="61kF0M2mHR3nrfZJnthj-96" value="" style="ellipse;html=1;shape=startState;fillColor=#000000;strokeColor=#ff0000;fontColor=#5C5C5C;" vertex="1" parent="1c1d494c118603dd-4">
          <mxGeometry x="120" width="30" height="30" as="geometry" />
        </mxCell>
        <mxCell id="1c1d494c118603dd-29" style="edgeStyle=orthogonalEdgeStyle;rounded=0;html=1;exitX=0.75;exitY=1;labelBackgroundColor=none;startArrow=none;startFill=0;startSize=5;endArrow=classicThin;endFill=1;endSize=5;jettySize=auto;orthogonalLoop=1;strokeWidth=1;fontFamily=Verdana;fontSize=12;strokeColor=none;fontColor=default;" parent="1c1d494c118603dd-3" source="60571a20871a0731-3" target="1c1d494c118603dd-5" edge="1">
          <mxGeometry relative="1" as="geometry">
            <Array as="points">
              <mxPoint x="160" y="145" />
              <mxPoint x="380" y="145" />
            </Array>
          </mxGeometry>
        </mxCell>
        <mxCell id="61kF0M2mHR3nrfZJnthj-15" value="" style="endArrow=classic;html=1;rounded=0;strokeColor=#006658;fontColor=#5C5C5C;fillColor=#21C0A5;exitX=0.1;exitY=0.8;exitDx=0;exitDy=0;exitPerimeter=0;" edge="1" parent="1" source="61kF0M2mHR3nrfZJnthj-12">
          <mxGeometry width="50" height="50" relative="1" as="geometry">
            <mxPoint x="470" y="500" as="sourcePoint" />
            <mxPoint x="600" y="560" as="targetPoint" />
          </mxGeometry>
        </mxCell>
        <mxCell id="61kF0M2mHR3nrfZJnthj-16" value="" style="endArrow=classic;html=1;rounded=0;strokeColor=#006658;fontColor=#5C5C5C;fillColor=#21C0A5;" edge="1" parent="1">
          <mxGeometry width="50" height="50" relative="1" as="geometry">
            <mxPoint x="760" y="490" as="sourcePoint" />
            <mxPoint x="760" y="560" as="targetPoint" />
          </mxGeometry>
        </mxCell>
        <mxCell id="61kF0M2mHR3nrfZJnthj-23" value="" style="endArrow=classic;html=1;rounded=0;strokeColor=#006658;fontColor=#5C5C5C;fillColor=#21C0A5;exitX=0;exitY=0.5;exitDx=0;exitDy=0;" edge="1" parent="1" source="61kF0M2mHR3nrfZJnthj-22">
          <mxGeometry width="50" height="50" relative="1" as="geometry">
            <mxPoint x="470" y="560" as="sourcePoint" />
            <mxPoint x="700" y="800" as="targetPoint" />
            <Array as="points">
              <mxPoint x="700" y="710" />
            </Array>
          </mxGeometry>
        </mxCell>
        <mxCell id="61kF0M2mHR3nrfZJnthj-59" value="" style="rounded=1;whiteSpace=wrap;html=1;strokeColor=#006658;fontColor=#5C5C5C;fillColor=#21C0A5;" vertex="1" parent="1">
          <mxGeometry x="540" y="-60" width="120" height="60" as="geometry" />
        </mxCell>
      </root>
    </mxGraphModel>
  </diagram>
</mxfile>
